<?xml version="1.0" encoding="utf-8"?>
<!-- Generator: Adobe Illustrator 18.1.1, SVG Export Plug-In . SVG Version: 6.00 Build 0)  -->
<svg version="1.1" xmlns="http://www.w3.org/2000/svg" xmlns:xlink="http://www.w3.org/1999/xlink" x="0px" y="0px"
	 viewBox="0 0 253.7 32" enable-background="new 0 0 253.7 32" xml:space="preserve">
<g id="Helpful_Things">
</g>
<g id="Original_Charts">
</g>
<g id="Charts">
	<g>
		<circle fill="#D18A00" cx="16" cy="16" r="14"/>
		<g>
			<path fill="#FFFFFF" d="M20.3,12.1c-0.5-0.6-1.1-1-1.6-1.2c-0.5-0.2-1-0.3-1.5-0.3c-0.8,0-1.5,0.1-2.1,0.4
				c-0.6,0.3-1.2,0.6-1.6,1.1c-0.4,0.5-0.8,1-1,1.7c-0.2,0.6-0.4,1.3-0.4,2.1c0,0.8,0.1,1.5,0.4,2.2c0.2,0.7,0.6,1.2,1,1.7
				c0.4,0.5,1,0.9,1.6,1.2c0.6,0.3,1.3,0.4,2.1,0.4c0.6,0,1.2-0.1,1.7-0.4c0.6-0.3,1.1-0.7,1.6-1.4l2.2,1.5c-0.7,0.9-1.5,1.6-2.4,2
				c-1,0.4-2,0.6-3.1,0.6c-1.1,0-2.2-0.2-3.1-0.6c-1-0.4-1.8-0.9-2.5-1.6c-0.7-0.7-1.2-1.5-1.6-2.4c-0.4-0.9-0.6-2-0.6-3.2
				c0-1.2,0.2-2.3,0.6-3.2c0.4-1,0.9-1.8,1.6-2.5C12.2,9.7,13,9.1,14,8.8c1-0.4,2-0.6,3.1-0.6c1,0,1.9,0.2,2.8,0.5
				c0.9,0.4,1.7,1,2.4,1.8L20.3,12.1z"/>
		</g>
	</g>
	
		<text transform="matrix(1 0 0 1 36.3848 22.7085)" fill="#55565A" font-family="'Avenir-Medium'" font-size="14" letter-spacing="1">Oregon PFS comm share</text>
</g>
</svg>
