<?xml version="1.0" encoding="utf-8"?>
<!-- Generator: Adobe Illustrator 18.1.1, SVG Export Plug-In . SVG Version: 6.00 Build 0)  -->
<svg version="1.1" xmlns="http://www.w3.org/2000/svg" xmlns:xlink="http://www.w3.org/1999/xlink" x="0px" y="0px"
	 viewBox="0 0 252 122" enable-background="new 0 0 252 122" xml:space="preserve">
<g id="Helpful_Things">
</g>
<g id="Original_Charts">
</g>
<g id="Charts">
	<g>
		<circle fill="#D18A00" cx="126" cy="22" r="22"/>
		<g>
			<path fill="#FFFFFF" d="M132.7,15.8c-0.9-0.9-1.7-1.5-2.5-1.8c-0.8-0.3-1.6-0.5-2.4-0.5c-1.2,0-2.3,0.2-3.3,0.6
				c-1,0.4-1.8,1-2.5,1.8c-0.7,0.8-1.2,1.6-1.6,2.6c-0.4,1-0.6,2.1-0.6,3.3c0,1.2,0.2,2.4,0.6,3.5c0.4,1.1,0.9,2,1.6,2.7
				c0.7,0.8,1.5,1.4,2.5,1.8c1,0.4,2.1,0.7,3.3,0.7c0.9,0,1.9-0.2,2.7-0.7c0.9-0.4,1.7-1.2,2.5-2.2l3.4,2.4
				c-1.1,1.4-2.3,2.5-3.8,3.2c-1.5,0.7-3.1,1-4.8,1c-1.8,0-3.4-0.3-4.9-0.9c-1.5-0.6-2.8-1.4-3.9-2.5c-1.1-1.1-1.9-2.3-2.5-3.8
				c-0.6-1.5-0.9-3.1-0.9-5c0-1.9,0.3-3.6,0.9-5.1c0.6-1.5,1.5-2.8,2.5-3.9c1.1-1.1,2.4-1.9,3.9-2.5c1.5-0.6,3.2-0.9,4.9-0.9
				c1.6,0,3,0.3,4.4,0.8c1.3,0.6,2.6,1.5,3.8,2.8L132.7,15.8z"/>
		</g>
	</g>
	<rect x="-11.2" y="56.5" fill="none" width="274.4" height="63.8"/>
	<text transform="matrix(1 0 0 1 39.066 72.4575)"><tspan x="0" y="0" fill="#55565A" font-family="'Avenir-Medium'" font-size="21.0472" letter-spacing="4">Oregon PFS </tspan><tspan x="-38.9" y="42.1" font-family="'Avenir-Heavy'" font-size="42.0943">Comm Share</tspan></text>
</g>
</svg>
